<svg width="80" height="35" viewBox="0 0 80 35" fill="none" xmlns="http://www.w3.org/2000/svg">
<path d="M37.8847 27.5644C37.6208 28.1394 38.1006 27.9416 38.1006 27.9416C38.1006 27.9416 38.2325 27.8404 38.2325 27.8634C38.3405 27.4862 37.8847 27.5644 37.8847 27.5644ZM6.76984 14.0276C6.46597 13.9494 5.9182 14.4553 5.9182 14.4875C5.83424 15.1177 4.78268 15.895 4.80667 15.895C4.30288 16.2446 4.78268 16.1204 4.80667 16.1434C5.15452 16.1434 5.87422 15.1913 5.85423 15.2235C6.1581 14.8509 6.29004 14.8969 6.29004 14.8969C6.29004 14.8969 6.48596 14.6991 6.50995 14.7221C6.66189 14.5979 6.8578 14.4967 6.83781 14.5473C7.70944 14.1012 6.76984 14.0276 6.76984 14.0276ZM37.3609 28.0888C37.4249 27.5644 36.5093 27.7622 36.5093 27.7668C36.2894 27.7668 36.2894 27.914 36.2894 27.914C36.2894 27.914 35.3058 28.2912 35.3058 28.3188C35.0899 28.42 35.0459 28.5166 35.0459 28.5166C34.922 28.6427 34.7719 28.7298 34.6101 28.7695L34.4102 28.9719C34.3431 28.9899 34.2776 29.0146 34.2142 29.0455C33.8502 29.3588 33.4637 29.6358 33.0587 29.8735L32.9068 30.0022C32.315 30.2 32.379 30.3288 32.403 30.3288C32.2422 30.4857 32.0561 30.6046 31.8552 30.6784C31.5714 30.729 31.5074 30.8072 31.5074 30.8072C31.5074 30.8072 30.9396 31.2304 30.9196 31.2304C30.7261 31.3469 30.5505 31.4992 30.3999 31.6811C30.072 31.9065 30.14 31.9571 30.14 31.9571L30.1839 32.2607L30.3559 32.1825C30.7358 32.2726 31.1287 32.2605 31.5039 32.1472C31.8791 32.0339 32.2265 31.8225 32.519 31.5293C32.8668 31.3316 32.7149 31.2304 32.7389 31.2304C32.7975 31.2021 32.8507 31.1607 32.8953 31.1086C32.9399 31.0565 32.9751 30.9947 32.9987 30.9268C33.3066 30.9544 33.8504 30.5266 33.8744 30.5496C34.2462 30.1494 34.5501 29.8229 34.5501 29.8459C34.8234 29.6015 35.1472 29.4431 35.4897 29.3859C35.7707 29.3136 36.0235 29.1375 36.2094 28.8845C36.4733 28.558 36.4933 28.6821 36.5373 28.7051C36.7132 28.4568 36.8451 28.5809 36.8451 28.5809C37.5328 28.2406 37.3609 28.0888 37.3609 28.0888ZM11.3799 11.5391C10.9796 11.8495 10.6315 12.2406 10.3523 12.6937C10.3523 12.7213 9.78457 13.448 10.4603 13.1536C10.4403 13.126 10.5283 13.0754 10.8121 13.0524C10.8321 13.0248 10.9441 13.103 11.212 12.6753C11.212 12.6477 11.5398 12.0451 11.5398 12.0451C11.5398 12.0451 12.2315 11.0378 11.3799 11.5391ZM8.5171 11.0378L8.45313 10.8124C8.39344 10.759 8.32748 10.7157 8.25721 10.6836C8.23282 10.6498 8.20227 10.6227 8.16772 10.604C8.13316 10.5853 8.09547 10.5757 8.0573 10.5757C8.01913 10.5757 7.98143 10.5853 7.94688 10.604C7.91233 10.6227 7.88177 10.6498 7.85738 10.6836C7.63898 10.8854 7.37294 11.0072 7.0937 11.0332L6.85381 11.162C6.80201 11.2568 6.75784 11.3569 6.72186 11.461C6.64082 11.6278 6.53054 11.7735 6.398 11.8887C6.398 11.8887 6.28605 12.2153 6.26605 12.1923C6.16445 12.3214 6.07592 12.4634 6.00217 12.6155L5.9142 12.8179C5.9142 12.8179 5.87022 13.0202 5.82624 12.9926C5.69459 13.1229 5.60337 13.2989 5.56635 13.494C5.56635 13.494 5.61033 13.6228 5.10654 14.1242C4.97363 14.2676 4.84939 14.4212 4.7347 14.5841L4.4948 14.8877L4.23491 15.2373L4.01101 15.6099C3.79735 15.9021 3.59972 16.2093 3.41926 16.5298C3.37028 16.5743 3.326 16.6252 3.28731 16.6816L3.13538 16.9576L3.04742 17.1554L2.89548 17.3347C2.89548 17.3347 2.98344 17.4083 3.3313 17.2059L3.46324 17.1554C3.60521 16.9832 3.69739 16.7646 3.72713 16.5298C3.72713 16.5528 3.87906 16.3274 3.87906 16.3274L4.07498 16.2262C4.07498 16.2262 5.12254 15.0211 5.34245 14.6715C5.39427 14.6466 5.43839 14.6043 5.46905 14.5502C5.49971 14.4961 5.5155 14.4326 5.51437 14.368C5.4985 14.3288 5.49057 14.286 5.49116 14.2429C5.49176 14.1997 5.50087 14.1572 5.51781 14.1187C5.53476 14.0802 5.55908 14.0465 5.58896 14.0204C5.61884 13.9943 5.65349 13.9763 5.6903 13.9678C6.0011 13.7933 6.31434 13.6246 6.6299 13.4618C7.03446 13.394 7.41725 13.2085 7.74194 12.9227C8.06663 12.6369 8.32245 12.2604 8.48512 11.8289C8.57055 11.5763 8.58178 11.2984 8.5171 11.0378ZM31.0036 26.2167L31.2435 25.9361C31.4634 25.7889 31.3954 25.7107 31.3954 25.7107C31.2875 25.6096 31.2235 25.3612 31.1995 25.3612C31.2141 25.2607 31.2141 25.1581 31.1995 25.0576C31.1995 25.0576 31.0476 25.0852 31.0676 25.0576C31.0236 24.8092 30.7397 25.0852 30.7397 25.0852C30.044 25.3612 30.4998 25.4854 30.4798 25.513C30.6757 25.7107 30.5678 25.7613 30.5438 25.7613C30.5296 25.8283 30.5378 25.899 30.5666 25.9595C30.5955 26.0199 30.643 26.0657 30.6997 26.0879C30.9396 26.3409 31.0036 26.2167 31.0036 26.2167ZM43.8861 28.5947C43.8861 28.5947 43.8302 28.328 43.6982 28.2958C43.6382 28.2958 43.5703 28.2958 43.5023 28.4062C43.3469 28.6044 43.1559 28.7613 42.9425 28.8661C42.8226 28.8999 42.7546 28.9566 42.7386 29.0363C42.7226 29.1191 42.7746 29.2172 42.8946 29.3307H42.9625C43.0775 29.386 43.2021 29.4096 43.3264 29.3997H43.3664C43.4183 29.3997 43.5103 29.3997 43.6662 29.1927C43.7491 29.1289 43.8143 29.0391 43.854 28.9339C43.8937 28.8287 43.9062 28.7125 43.8901 28.5993L43.8861 28.5947ZM31.5714 24.6068C31.8312 24.731 31.7913 24.8828 31.7913 24.8828L31.9192 24.708C32.0312 24.4826 32.0951 24.5838 32.1151 24.5838C32.515 24.5838 32.5749 24.4044 32.5749 24.4044C32.9268 24.3814 32.8388 24.0043 32.8388 24.0549C32.8388 23.7007 32.5309 23.8019 32.487 23.7789C32.3289 23.724 32.1643 23.6976 31.9992 23.7007C31.4954 23.5995 31.4514 23.9261 31.4514 23.9261C31.2995 24.0549 31.3874 24.3032 31.3874 24.3032C31.3075 24.685 31.5993 24.5562 31.5714 24.6068ZM20.7599 25.8119C20.7408 25.7328 20.7126 25.657 20.676 25.5866C20.6036 25.5079 20.523 25.4399 20.4361 25.3842C20.1682 25.1266 20.1002 25.26 20.1002 25.283C19.9557 25.2165 19.8035 25.1747 19.6484 25.1588C19.4725 25.0852 19.5165 25.3612 19.5604 25.3612C19.7124 25.3336 19.6484 25.559 19.6044 25.5084C19.5844 25.7108 19.4965 25.8119 19.4725 25.7843C19.1446 25.8119 19.4725 26.2903 19.4725 26.2903C19.5804 26.4145 19.5804 26.4881 19.5804 26.4881L19.7124 26.5663L19.8883 26.7135C19.987 26.7807 20.0995 26.8161 20.2142 26.8161C20.3288 26.8161 20.4414 26.7807 20.54 26.7135L20.672 26.7411L20.7599 26.4651L20.8679 26.3133V26.0649C20.8719 25.7383 20.7599 25.8395 20.7599 25.8119ZM21.1318 23.2499C21.2078 23.1718 21.255 23.0632 21.2637 22.9463C21.2974 22.7819 21.357 22.626 21.4396 22.4864C21.6356 22.238 20.676 21.6308 20.676 21.6308C20.3041 21.1065 20.2761 21.8608 20.2761 21.8608L20.1642 22.1874L20.0762 22.3392L20.0042 22.9417C19.8603 23.4017 20.0042 23.3741 20.0242 23.3465C20.0682 23.5949 20.0242 23.7421 20.0242 23.7421C20.0302 23.8123 20.0514 23.8796 20.0858 23.938C20.1201 23.9964 20.1666 24.044 20.2211 24.0764C20.2755 24.1089 20.3361 24.1252 20.3974 24.1238C20.4587 24.1225 20.5187 24.1035 20.572 24.0687C20.572 23.8939 20.7879 23.8709 20.7879 23.8709C20.7879 23.5903 20.8759 23.5673 20.9199 23.5443C21.0238 23.2729 21.1318 23.2499 21.1318 23.2499ZM79.9029 5.37098C79.8792 5.19082 79.8186 5.01972 79.7262 4.87177C79.6337 4.72383 79.512 4.60327 79.3711 4.52005C79.1724 4.44208 78.9607 4.41811 78.7526 4.45003C78.5445 4.48195 78.3457 4.56889 78.1717 4.70403L77.8878 4.80522C76.4331 5.43929 74.913 5.85365 73.3657 6.03794H73.1578C71.1919 5.88652 69.2479 5.47441 67.3642 4.80983L67.2203 4.76383C66.192 4.25285 65.075 4.02188 63.9563 4.0889C62.8377 4.15591 61.7476 4.51911 60.771 5.1502C60.1115 5.78614 59.5916 6.59186 59.2533 7.50208C58.915 8.4123 58.7679 9.4014 58.8238 10.3892C58.0033 10.4703 57.1801 10.272 56.4568 9.81887C56.1327 9.5673 55.8006 9.32949 55.4613 9.10592C54.6336 8.53556 53.5021 7.75362 52.7944 7.17406L52.6784 7.07747C51.5344 6.13601 50.2632 5.41802 48.916 4.95242C46.4438 4.09623 43.8332 3.90735 41.2872 4.40045C41.1753 4.40045 40.9914 4.44185 40.5875 4.51545C39.8638 4.64884 38.6524 4.87422 37.5648 5.00301C37.4057 5.00438 37.2468 5.01666 37.089 5.03981C35.5737 5.21991 34.0491 5.27525 32.5269 5.20539C32.4471 5.19849 32.3669 5.19849 32.287 5.20539C31.4991 5.28893 30.7074 5.10164 30.012 4.66723L29.9121 4.54304C29.8214 4.42958 29.7774 4.35446 29.7801 4.31766C29.7841 4.28086 29.8161 4.23946 29.948 4.15667L29.988 4.12907L30.096 4.08308C30.2285 3.94153 30.3099 3.74775 30.3239 3.54031C30.3239 3.29653 30.2159 2.88256 29.4083 2.83656C28.7678 2.77154 28.1232 2.88514 27.5291 3.16774C27.4882 3.14727 27.4544 3.11165 27.4331 3.06655C27.4085 2.90711 27.4371 2.74288 27.5131 2.60658C27.7485 2.36612 27.9628 2.09958 28.1528 1.81083C28.3767 1.45206 28.5526 0.932297 28.4007 0.628718C28.1528 0.131953 27.4011 -0.0704325 26.1097 0.021561C24.2913 0.263315 22.5079 0.775074 20.8039 1.54406C20.6542 1.61895 20.4909 1.65054 20.3281 1.63605C20.3693 1.52221 20.3833 1.39774 20.3685 1.27559C20.3538 1.15343 20.3108 1.03807 20.2441 0.941495C19.9283 0.481528 19.1206 0.481528 17.7092 0.900099L17.4733 0.969096C17.2334 1.07489 16.7856 1.29107 15.874 1.72344H15.83V1.58545C15.7864 1.2878 15.6428 1.02181 15.4302 0.844902C15.238 0.704127 15.0057 0.654658 14.7825 0.706913C13.8343 1.0456 12.9264 1.51838 12.0796 2.11441C11.6798 2.39039 11.3479 2.63878 11.148 2.79057L10.9681 2.93316V2.90556L10.7642 3.10795C10.7564 3.11709 10.747 3.12427 10.7367 3.12902C10.7264 3.13377 10.7153 3.13599 10.7042 3.13554C10.5203 3.08954 10.2364 2.58818 10.1324 2.326C10.0608 2.00807 9.89108 1.73098 9.65491 1.54646C9.41873 1.36195 9.13226 1.28261 8.84896 1.32327C7.1137 2.20641 7.28562 4.93862 7.3416 5.50438C7.34722 5.56707 7.34722 5.63026 7.3416 5.69296C6.75076 6.04473 6.18639 6.45245 5.65431 6.91188C4.84629 7.46098 4.25126 8.34461 3.99102 9.3819V9.51529C3.95326 10.1386 3.79333 10.7441 3.52321 11.2862C2.47005 13.1158 1.43045 14.9558 0.404534 16.8058C0.164419 17.1192 0.0228379 17.5163 0.00253426 17.9334C-0.0177694 18.3505 0.0843823 18.7633 0.29258 19.1056C0.481256 19.4651 0.596125 19.8694 0.628439 20.2877V20.3613C0.693014 20.6083 0.804295 20.8358 0.954301 21.0274C1.10431 21.2191 1.28932 21.3702 1.49607 21.4698C1.69406 21.5842 1.91055 21.65 2.1318 21.663C2.40574 21.6865 2.67518 21.7563 2.93146 21.87H2.99144C3.47521 21.8063 3.94968 21.6702 4.40284 21.4653C4.60499 21.3806 4.78607 21.2404 4.93033 21.0568C5.07458 20.8732 5.17763 20.6518 5.23049 20.4119V20.3751C5.78903 19.0193 6.60959 17.8283 7.62948 16.8932L7.87338 16.7046C8.27321 16.4194 9.07287 15.8536 9.76058 15.3937C11.0076 14.6142 12.1244 13.5863 13.0592 12.3579L13.3311 12.5051C14.2998 12.9632 15.2222 13.5416 16.0819 14.23C17.3842 15.0899 18.3821 16.4495 18.9007 18.0707L18.9487 18.3283C18.9415 19.0069 18.8691 19.6826 18.7328 20.3429C18.5169 21.6492 18.177 23.5949 18.0891 23.8387C17.8752 24.4413 17.7954 25.0959 17.8572 25.7429V25.8073C17.9954 26.6595 18.2377 27.4849 18.5769 28.259C18.6128 28.3694 18.7968 28.7741 19.5045 28.7465H19.6124C19.7799 28.7426 19.9459 28.7085 20.1042 28.6453C20.2681 28.5993 22.0634 28.236 22.5512 28.1854H22.5912C23.801 27.9831 25.0332 28.0487 26.2216 28.3786L26.3776 28.489C26.6055 28.6361 27.0813 28.9489 27.1772 29.4089C27.2824 29.6643 27.4457 29.8821 27.6499 30.0392C27.854 30.1963 28.0914 30.2869 28.3367 30.3012C28.4127 30.3334 28.6886 30.4484 29.1364 30.6048C29.1767 30.6137 29.2125 30.64 29.2363 30.6784C29.2363 30.6784 29.2363 30.7428 29.1884 30.8302L29.1324 30.8946C28.8433 31.2204 28.5006 31.4765 28.1244 31.6479C27.7481 31.8193 27.3459 31.9026 26.9413 31.8927C26.8225 31.8913 26.7057 31.928 26.604 31.9987C26.5023 32.0694 26.4198 32.1713 26.3656 32.2929C25.9257 32.7529 25.218 33.6314 25.294 34.3259C25.3078 34.4551 25.3494 34.5783 25.415 34.6844C25.4806 34.7904 25.5682 34.8759 25.6698 34.9331C26.0232 34.9922 26.3807 35.0122 26.7374 34.9929C27.8449 34.9929 29.4642 34.9285 29.8561 34.8595C29.8912 34.8557 29.9253 34.843 29.9557 34.8223C29.9861 34.8017 30.0121 34.7735 30.032 34.7399H30.068V34.6341C30.1003 34.5768 30.1458 34.5309 30.1995 34.5017C30.2532 34.4724 30.3128 34.461 30.3719 34.4685H31.2795C31.451 34.5078 31.6279 34.5034 31.7978 34.4558C31.9677 34.4081 32.1265 34.3183 32.2631 34.1926L32.311 34.1512C32.5367 33.8968 32.8166 33.7152 33.1227 33.6248C33.4287 33.5344 33.75 33.5382 34.0543 33.636C34.6173 33.7775 35.1424 34.0725 35.5857 34.4961C35.8607 34.6693 36.1647 34.7728 36.4773 34.7997C36.5173 34.7997 37.057 34.8595 37.4089 34.9055C37.4748 34.9155 37.5419 34.9065 37.604 34.8792C37.6662 34.8519 37.7214 34.8072 37.7647 34.7491L37.8527 34.6341C38.421 33.9008 38.9549 33.1331 39.452 32.3343C39.519 32.2918 39.5776 32.2339 39.6244 32.1643C39.6712 32.0947 39.705 32.0148 39.7239 31.9295C39.7239 31.7869 39.7239 31.5247 39.3241 31.3867C38.5684 31.0771 37.7831 30.8733 36.9851 30.7796C37.6163 30.2649 38.3234 29.8862 39.0722 29.6619H39.1681C39.2895 29.6488 39.4116 29.676 39.52 29.7401L39.62 29.7677L39.8319 29.8321C40.8215 30.1616 41.8364 30.3803 42.8626 30.4852C43.1963 30.6515 43.5673 30.6918 43.9221 30.6002C44.0963 30.5533 44.2556 30.4514 44.382 30.3059C44.5085 30.1604 44.5971 29.9772 44.6378 29.7769C44.9448 28.8509 45.3634 27.9792 45.8813 27.1872L45.9813 27.0493C46.7133 25.8524 47.708 24.9001 48.864 24.2894C49.6654 23.9925 50.4373 23.5994 51.1671 23.1165C53.1045 21.3782 54.6956 19.1824 55.8331 16.677C56.0181 16.2035 56.3254 15.8069 56.713 15.5411C57.1007 15.2753 57.5501 15.1532 58.0002 15.1913L61.5227 15.1407C62.0197 15.2789 62.5423 15.2276 63.0117 14.9944C63.4812 14.7613 63.8721 14.359 64.1256 13.8482C64.4814 12.9559 65.2971 11.484 66.1247 11.6265C67.1659 11.7908 68.1904 12.0728 69.1834 12.4683C70.1893 12.6804 71.2079 12.8034 72.2302 12.8363C74.0103 13.0294 75.7953 12.5306 77.3 11.4196C78.2572 10.8885 79.0329 10.0051 79.5044 8.90952C79.9759 7.81391 80.1161 6.56864 79.9029 5.37098ZM77.276 11.1482C75.8065 12.1995 74.0834 12.683 72.3581 12.5281C71.3516 12.5016 70.3486 12.38 69.3594 12.1647C68.3485 11.7619 67.305 11.4769 66.2447 11.3138C65.7302 11.2279 65.2078 11.5897 64.6774 12.3993C64.419 12.8059 64.1954 13.2403 64.0096 13.6964C63.7791 14.1527 63.426 14.5106 63.0035 14.7163C62.581 14.922 62.1119 14.9644 61.6666 14.8371L58.1241 14.8877C57.6253 14.8468 57.1277 14.9833 56.6986 15.2787C56.2695 15.5741 55.9296 16.014 55.7251 16.539C54.6034 19.009 53.0405 21.1783 51.1391 22.9049C50.4283 23.3705 49.6781 23.7512 48.9 24.0411C47.6997 24.6738 46.6664 25.6609 45.9053 26.9021L45.8173 27.0217C45.2813 27.8452 44.8479 28.7509 44.5299 29.7125C44.4959 29.861 44.4285 29.9966 44.3344 30.1056C44.2403 30.2146 44.123 30.2932 43.9941 30.3334C43.6899 30.4052 43.3737 30.3649 43.0905 30.2184H43.0425C42.026 30.1145 41.0205 29.8988 40.0398 29.5745L39.8239 29.5101L39.7359 29.4871C39.5932 29.402 39.4316 29.3684 39.2721 29.3905H39.2161C38.4119 29.6131 37.6529 30.013 36.9811 30.568L36.8731 30.6416C36.8391 30.6638 36.8115 30.697 36.7938 30.7371C36.776 30.7771 36.7688 30.8223 36.7732 30.867C36.7794 30.9083 36.7954 30.9469 36.8194 30.9785C36.8433 31.0101 36.8744 31.0336 36.9091 31.0464H36.9411C37.7815 31.1219 38.6096 31.3245 39.404 31.6489C39.5693 31.7103 39.6453 31.7885 39.6319 31.8835C39.6177 31.9312 39.5951 31.975 39.5655 32.0121C39.5359 32.0493 39.5 32.0791 39.46 32.0997H39.428L39.408 32.1365C38.9182 32.9416 38.384 33.7098 37.8087 34.4363L37.7128 34.5651C37.7128 34.5881 37.6368 34.6019 37.5888 34.5927L36.6492 34.4869C36.3699 34.4664 36.0975 34.3787 35.8495 34.2293C35.3799 33.7783 34.8233 33.4628 34.2262 33.3094C33.8838 33.1947 33.5212 33.1852 33.1746 33.2821C32.828 33.3789 32.5096 33.5787 32.2511 33.8614L32.2151 33.8936C32.1047 33.997 31.9756 34.071 31.8373 34.1099C31.699 34.1489 31.5549 34.152 31.4154 34.119H30.3759C30.2608 34.1087 30.1459 34.1411 30.048 34.2115C29.9502 34.2818 29.8745 34.3864 29.8321 34.5099C28.4847 34.6311 27.1325 34.6649 25.7818 34.6111C25.7166 34.5748 25.6603 34.5205 25.6177 34.4531C25.5752 34.3857 25.5478 34.3073 25.5379 34.2247C25.4939 33.8108 25.8698 33.1346 26.5455 32.4217C26.7374 32.1089 26.8653 32.1273 26.9093 32.1319H26.9613C27.3991 32.146 27.8347 32.0565 28.2411 31.8689C28.6476 31.6814 29.0163 31.3999 29.3243 31.0418L29.3683 30.9912C29.4108 30.9336 29.4403 30.8649 29.4543 30.7911C29.4682 30.7173 29.4662 30.6407 29.4483 30.568C29.4229 30.5081 29.3865 30.4554 29.3416 30.4133C29.2967 30.3712 29.2444 30.3408 29.1884 30.3242C28.7046 30.1632 28.4327 30.0436 28.3887 30.0252C28.2028 30.0132 28.0224 29.948 27.864 29.8356C27.7055 29.7231 27.5739 29.567 27.4811 29.3813C27.3091 28.8918 26.9777 28.4989 26.5575 28.2866L26.4015 28.1624C25.5077 27.8649 24.5739 27.7589 23.6467 27.8496H23.6827L23.3788 27.8818C23.059 27.9048 22.7951 27.937 22.6391 27.96H22.5912C22.1074 28.0106 20.2601 28.3786 20.0922 28.42C19.9524 28.4718 19.8071 28.5012 19.6604 28.5074H19.5604C18.9727 28.5303 18.8767 28.213 18.8727 28.1992C18.5492 27.448 18.3165 26.6494 18.181 25.8257V25.7613C18.1312 25.1699 18.2067 24.5733 18.4009 24.0227C18.5289 23.6501 19.0526 20.5039 19.0566 20.4763C19.1991 19.7922 19.2729 19.0915 19.2766 18.3881L19.2046 18.0477C18.6408 14.9383 14.0068 12.4683 13.475 12.2751C13.3449 12.2009 13.2115 12.1348 13.0752 12.0773H13.0112L12.9312 12.1785C12.0207 13.405 10.9181 14.4239 9.68061 15.1821C9.0009 15.6421 8.18524 16.2124 7.78541 16.5022L7.53752 16.6908C6.47825 17.6628 5.6285 18.9033 5.05457 20.3153V20.3843C5.00951 20.5808 4.92325 20.7615 4.80335 20.9106C4.68345 21.0598 4.53357 21.1728 4.36686 21.2399C3.96321 21.4218 3.5436 21.5529 3.11539 21.6308H3.0874C2.80872 21.5096 2.51669 21.4337 2.21977 21.4055C2.04193 21.3864 1.86711 21.34 1.69999 21.2675C1.52465 21.1852 1.36676 21.0604 1.23706 20.9017C1.10735 20.7429 1.00887 20.5539 0.948303 20.3475L0.928312 20.2923C0.885197 19.834 0.757027 19.3917 0.552471 18.9952C0.380184 18.6992 0.298104 18.3458 0.319086 17.9904C0.340068 17.635 0.462928 17.2976 0.668422 17.0312C0.692412 16.9852 3.50722 11.9715 3.7871 11.5116C4.09844 10.9164 4.26806 10.2374 4.27889 9.54289V9.48309C4.4988 7.83641 7.22965 6.18973 7.54152 6.00574H7.5815V5.95974C7.61658 5.83816 7.62347 5.70816 7.60149 5.58257C7.54951 5.07661 7.37758 2.50999 8.94892 1.69124C9.17456 1.66102 9.40195 1.72794 9.58725 1.87912C9.77255 2.03029 9.90266 2.25502 9.9525 2.50999C9.9525 2.50999 10.3123 3.38392 10.6962 3.48052H10.7682V3.60931L10.9761 3.37933C11.0887 3.2755 11.2062 3.17876 11.3279 3.08954C11.5238 2.93775 11.8437 2.69397 12.2475 2.42259C13.0767 1.84126 13.9641 1.3779 14.8904 1.04269C15.048 1.00958 15.2107 1.04569 15.3462 1.14388C15.4972 1.28807 15.5968 1.49106 15.6261 1.71424V1.76944V1.73724C15.6261 1.88443 15.6261 1.95802 15.6981 2.00402C15.7674 2.05308 15.8727 2.05308 16.0139 2.00402H16.0059C17.2294 1.41526 17.6412 1.21748 17.7692 1.18528L18.0051 1.10249C19.1406 0.786643 19.823 0.786643 20.0522 1.10249C20.0929 1.1687 20.1177 1.24612 20.124 1.3269C20.1304 1.40768 20.118 1.48894 20.0882 1.56245V1.62685C20.0894 1.67923 20.1017 1.73049 20.1239 1.77618C20.1462 1.82187 20.1779 1.8606 20.2162 1.88903C20.4041 2.01322 20.7879 1.88903 20.9039 1.82003C22.5844 1.05829 24.3414 0.542161 26.1337 0.283743C27.597 0.18255 28.0608 0.481531 28.1968 0.743713C28.2727 0.895502 28.1648 1.29567 27.9609 1.61765C27.7835 1.89444 27.5796 2.14748 27.3531 2.372H27.3291V2.39959C27.2607 2.5084 27.2137 2.63314 27.1916 2.76505C27.1695 2.89696 27.1728 3.03284 27.2012 3.16314C27.2281 3.23019 27.2675 3.28964 27.3166 3.33732C27.3656 3.385 27.4231 3.41975 27.4851 3.43912H27.569C28.1284 3.16351 28.7376 3.04828 29.3443 3.10334H29.3763C29.7001 3.10334 30.08 3.20454 30.072 3.51732C30.0645 3.59902 30.0412 3.67775 30.0038 3.74778C29.9665 3.8178 29.916 3.87736 29.8561 3.92209L29.6882 4.00028V4.02788C29.6108 4.0912 29.5555 4.18414 29.5322 4.29006C29.5042 4.47865 29.6442 4.65343 29.7281 4.75003L29.7761 4.81902C30.518 5.30204 31.3701 5.51381 32.2191 5.42618C32.2841 5.41694 32.3499 5.41694 32.415 5.42618C33.9518 5.49846 35.4912 5.44312 37.021 5.26059C37.167 5.23903 37.3138 5.22675 37.4609 5.2238H37.4849C38.5844 5.09501 39.8039 4.86962 40.5356 4.73163C40.8901 4.66417 41.1153 4.62737 41.2113 4.62124C45.104 3.74977 49.1382 4.69286 52.4265 7.24305L52.5465 7.33965C53.2582 7.92841 54.3977 8.71955 55.2254 9.28531C55.8931 9.74528 56.125 9.90627 56.2049 9.98446C57.7643 10.6928 58.6039 10.7112 58.8718 10.5134L58.9238 10.472V10.3984C58.8611 9.44069 58.9952 8.47941 59.3155 7.59242C59.6357 6.70542 60.1329 5.91762 60.767 5.29279C61.7142 4.68956 62.769 4.34435 63.8504 4.28375C64.9317 4.22315 66.0107 4.44876 67.0044 4.94322L67.1523 4.99381C69.0548 5.66832 71.0193 6.08511 73.0058 6.23572H73.1858C74.7668 6.05167 76.3204 5.63268 77.8078 4.98921C77.9411 4.93708 78.0357 4.90335 78.0917 4.88802C78.2362 4.77248 78.4016 4.69628 78.5755 4.66519C78.7494 4.63411 78.9271 4.64897 79.0953 4.70863C79.2017 4.77266 79.2935 4.86483 79.363 4.97757C79.4325 5.09031 79.4778 5.22041 79.4951 5.35718C79.7309 6.46884 79.6412 7.63895 79.24 8.686C78.8388 9.73306 78.1484 10.5985 77.276 11.1482ZM2.73155 17.6935C2.70626 17.721 2.68612 17.7542 2.67235 17.791C2.65858 17.8277 2.65148 17.8674 2.65148 17.9074C2.65148 17.9474 2.65858 17.9871 2.67235 18.0238C2.68612 18.0606 2.70626 18.0938 2.73155 18.1213C2.73155 18.5491 3.03542 17.8959 3.03542 17.8959C3.27532 17.4451 2.73155 17.6935 2.73155 17.6935ZM79.1512 4.93862C78.999 4.8931 78.84 4.8864 78.6853 4.91897C78.5306 4.95155 78.3839 5.02262 78.2556 5.1272L77.9318 5.2468C76.4282 5.9083 74.8528 6.32926 73.2497 6.4979H73.0738C71.0795 6.3438 69.1073 5.92553 67.1963 5.25139L67.0444 5.2008C66.0729 4.71356 65.0172 4.48961 63.9586 4.54623C62.9 4.60285 61.8669 4.93854 60.9389 5.52738C60.3132 6.14685 59.8247 6.92889 59.5139 7.80875C59.2031 8.68861 59.0789 9.64098 59.1517 10.587C59.1493 10.6338 59.1328 10.6782 59.1051 10.7126C59.0774 10.747 59.0402 10.7693 58.9998 10.7756C58.7958 10.9136 58.2281 11.07 56.2249 10.2236C55.8788 10.0007 55.5426 9.75816 55.2174 9.49689C54.4177 8.84374 53.2422 8.11699 52.5225 7.54203L52.4545 7.48684C50.8394 6.22348 49.0228 5.34055 47.1096 4.88898C45.1963 4.43741 43.2243 4.42614 41.3072 4.85582L40.6195 4.97081C39.8838 5.1042 38.6484 5.33419 37.5448 5.46298C37.5448 5.46298 37.2609 5.46298 37.089 5.49518C35.5513 5.68057 34.0039 5.73744 32.459 5.66536H32.2671C31.3786 5.75845 30.4874 5.52666 29.7201 5.00301L29.6482 4.90182C29.5715 4.82902 29.5106 4.73666 29.4703 4.63207C29.4301 4.52747 29.4116 4.41352 29.4163 4.29926C29.4418 4.1947 29.4884 4.09854 29.5523 4.01861C29.6162 3.93868 29.6957 3.87724 29.7841 3.83929L29.8321 3.8117C29.8801 3.7473 29.956 3.62311 29.932 3.53112C29.9081 3.43912 29.8481 3.33793 29.3603 3.31953L29.2323 3.25513C28.6855 3.25322 28.1431 3.36865 27.633 3.59551L27.4691 3.62311C27.2998 3.5587 27.1573 3.4243 27.0693 3.24593C26.8973 2.98835 27.2572 2.28 27.2572 2.28C27.4251 2.12821 28.1328 1.26347 28.0568 0.969096C28.0568 0.969096 28.0568 0.817308 28.0129 0.766711C27.9689 0.716115 27.5211 0.371137 26.1297 0.46773C24.3584 0.735961 22.6215 1.24709 20.9558 1.99022C20.8023 2.07594 20.6346 2.12299 20.4641 2.12821C20.4009 2.14095 20.3362 2.13766 20.2743 2.11859C20.2124 2.09952 20.1549 2.06512 20.1057 2.01781C20.0566 1.97049 20.0171 1.9114 19.9899 1.84466C19.9627 1.77792 19.9485 1.70516 19.9483 1.63145V1.55786C19.9736 1.50837 19.9869 1.45199 19.9869 1.39456C19.9869 1.33714 19.9736 1.28077 19.9483 1.23128C19.8563 1.10249 19.4525 0.854103 17.8012 1.34627C17.6732 1.39226 16.6737 1.87063 16.0579 2.16501C15.778 2.303 15.6341 2.21561 15.5621 2.11441C15.5003 2.02125 15.4717 1.90444 15.4822 1.78784C15.4768 1.68418 15.4535 1.58281 15.4137 1.48962C15.3739 1.39643 15.3183 1.3133 15.2503 1.24507C15.1483 1.17005 15.0255 1.14213 14.9064 1.16688C13.5282 1.69901 12.2305 2.47493 11.06 3.46672C10.9823 3.54662 10.8841 3.59523 10.7802 3.60519C10.6763 3.61515 10.5724 3.58592 10.4843 3.52192C10.1962 3.26516 9.96814 2.93007 9.82055 2.54678C9.60864 1.78324 9.16883 1.78324 8.98091 1.78324C7.56151 2.52379 7.67346 4.81443 7.74143 5.49518C7.76116 5.58914 7.76461 5.68665 7.75157 5.78215C7.73854 5.87764 7.70928 5.96925 7.66546 6.05174L7.62548 6.08853C7.59349 6.08853 4.63075 7.82721 4.42683 9.4555C4.4245 10.1938 4.25056 10.918 3.92305 11.5529C2.89117 13.3395 1.86891 15.1334 0.856342 16.9346L0.804364 17.0588C0.624161 17.2978 0.513412 17.5957 0.487603 17.9108C0.461795 18.2258 0.522219 18.5422 0.660425 18.8158C0.891899 19.2323 1.03692 19.7044 1.08425 20.1957L1.10424 20.2601C1.15962 20.4497 1.25016 20.6232 1.3696 20.7685C1.48904 20.9139 1.63451 21.0276 1.79595 21.1019H1.83593C1.97683 21.1445 2.11964 21.1783 2.26375 21.2031C2.57616 21.231 2.88331 21.3116 3.17536 21.4423C3.56925 21.3798 3.95562 21.2656 4.32687 21.1019C4.47229 21.0416 4.60358 20.9434 4.71042 20.8149C4.81726 20.6864 4.89674 20.5311 4.94261 20.3613C5.14288 19.8286 5.38653 19.3188 5.67031 18.8388C6.14941 17.9597 6.7679 17.192 7.49354 16.5758C8.18692 16.0268 8.90494 15.5201 9.64463 15.0579C10.8552 14.2987 11.9384 13.2971 12.8433 12.1003L12.8793 12.0497C13.0632 11.7875 13.7789 12.2429 14.2267 12.5097C15.2982 13.1076 18.8247 15.2695 19.3405 18.0293C19.4377 18.8565 19.3832 19.6978 19.1806 20.4993C19.1806 20.6327 18.6528 23.6869 18.5169 24.0733C18.343 24.5914 18.2732 25.148 18.313 25.7016V25.7567C18.4325 26.5858 18.6674 27.3872 19.0087 28.1302C19.0087 28.1302 19.1086 28.3556 19.5484 28.3418H19.6604C19.7963 28.3435 19.9315 28.3186 20.0602 28.2682C20.4227 28.1588 20.7915 28.0789 21.1638 28.029C21.4236 27.9784 22.2913 27.8128 22.6111 27.7806C23.8981 27.5585 25.2108 27.6399 26.4695 28.0198L26.5535 28.0566V28.0888L26.6294 28.1394C26.8548 28.2557 27.0581 28.422 27.2275 28.6288C27.397 28.8356 27.5293 29.0788 27.617 29.3445C27.7037 29.5018 27.8212 29.6336 27.96 29.7294C28.0989 29.8252 28.2552 29.8824 28.4167 29.8965H28.4487C28.7099 30.0068 28.9765 30.1065 29.2483 30.1954C29.3257 30.2202 29.3975 30.2638 29.4589 30.3234C29.5203 30.3829 29.5699 30.4569 29.6042 30.5404C29.6292 30.6412 29.6325 30.7476 29.6137 30.8502C29.5948 30.9528 29.5545 31.0486 29.4962 31.1292L29.4323 31.235C29.114 31.5987 28.7357 31.8854 28.3195 32.0782C27.9033 32.271 27.4578 32.3659 27.0093 32.3573C26.9843 32.3643 26.9583 32.3643 26.9333 32.3573C26.8653 32.3573 26.7774 32.4171 26.6774 32.5873L26.6534 32.6241C26.1816 33.1254 25.6459 33.8614 25.6938 34.2891C25.7 34.344 25.7183 34.396 25.747 34.4403C25.7757 34.4846 25.8139 34.5197 25.8578 34.5421C26.1377 34.5651 28.8685 34.5789 29.7401 34.4501C29.8091 34.3219 29.9057 34.2164 30.0206 34.1439C30.1355 34.0713 30.2648 34.0342 30.3959 34.0362H31.3754C31.6953 34.188 32.0911 33.8108 32.0991 33.8016C32.3756 33.5016 32.7161 33.2908 33.0861 33.1907C33.456 33.0905 33.8425 33.1045 34.2062 33.2312C34.8152 33.3773 35.3836 33.6932 35.8615 34.1512C36.0739 34.2873 36.3105 34.366 36.5532 34.3811L37.4769 34.4777L37.5488 34.4501C38.1408 33.6949 38.6961 32.9025 39.2121 32.0767L39.2481 31.9939H39.2961C39.3321 31.9939 39.388 31.8743 39.2601 31.8329C38.4661 31.5053 37.6379 31.2997 36.7971 31.2212C36.7971 31.2212 36.4213 31.1246 36.3973 30.959C36.3733 30.7934 36.5293 30.637 36.6892 30.499L36.8091 30.4162C37.5134 29.8725 38.2918 29.4682 39.1122 29.2203H39.1961C39.3742 29.1975 39.5543 29.2326 39.7159 29.3215C39.7719 29.3215 39.8558 29.3583 40.0118 29.4043C40.9899 29.7281 41.9927 29.9437 43.0065 30.0482L43.0865 30.0804C43.3398 30.1985 43.6166 30.2335 43.8861 30.1816C43.9918 30.1355 44.0878 30.0641 44.1678 29.9721C44.2477 29.8801 44.3098 29.7697 44.3499 29.6481C44.6715 28.6724 45.1117 27.754 45.6574 26.9205L45.7574 26.7825C46.5401 25.514 47.6029 24.5089 48.8361 23.8709C49.5936 23.5732 50.3268 23.1992 51.0271 22.7532C52.9028 21.0417 54.4471 18.8985 55.5612 16.4608C55.7796 15.9125 56.1371 15.4531 56.5867 15.1428C57.0362 14.8325 57.5568 14.6858 58.0801 14.7221L61.6506 14.6761C62.0848 14.8106 62.5461 14.7676 62.9559 14.5545C63.3656 14.3415 63.6985 13.9716 63.8977 13.5078C63.9577 13.3284 64.7893 10.909 66.2167 11.1528C67.276 11.3427 68.3202 11.6303 69.3394 12.0129C71.9584 12.7952 74.7359 12.4432 77.1441 11.024C78.0049 10.5148 78.6974 9.6958 79.116 8.69185C79.5347 7.6879 79.6566 6.55402 79.4631 5.46298C79.4485 5.35433 79.4129 5.25083 79.3589 5.16009C79.3049 5.06934 79.234 4.99367 79.1512 4.93862ZM15.2343 3.55871C16.4492 2.66892 17.7763 2.00022 19.1686 1.57625C19.5684 1.49806 19.6044 1.54865 19.6044 1.57625C19.9123 1.82464 19.3205 2.20181 19.2766 2.17881C18.7965 2.45969 18.3424 2.79564 17.9211 3.18154C17.4413 3.58631 18.0331 3.50812 18.0331 3.50812C18.0331 3.50812 19.2566 3.58631 19.2326 3.60931C19.7603 3.49023 20.2688 3.27766 20.7399 2.97916C25.9177 0.168753 27.2932 0.996692 27.2692 1.01969C27.577 1.12088 27.1372 1.34627 27.1372 1.34627C26.9175 1.62386 26.6691 1.86947 26.3975 2.07762C26.1717 2.27237 25.9084 2.40174 25.6299 2.45479C25.346 2.52839 25.37 2.55598 25.37 2.55598C25.37 2.55598 25.262 2.83196 25.262 2.78137C25.262 3.00675 24.9981 2.97915 24.9981 2.95616C24.4319 2.94109 23.8685 3.05198 23.3388 3.28273C22.939 3.63231 23.3388 3.50811 23.3388 3.53571C23.5895 3.45373 23.8559 3.46176 24.1025 3.55871C24.1404 3.55908 24.1773 3.57179 24.2092 3.59539C24.241 3.61898 24.2663 3.65248 24.2822 3.69199C24.2981 3.7315 24.304 3.77539 24.2991 3.81857C24.2941 3.86175 24.2787 3.90243 24.2544 3.93588C24.0585 4.26246 24.3624 4.18427 24.3424 4.21187C24.6263 4.28546 24.7143 4.43725 24.6903 4.41425C24.7249 4.46706 24.7456 4.53022 24.7499 4.59619C24.7542 4.66217 24.742 4.72818 24.7146 4.78635C24.6872 4.84453 24.6458 4.89241 24.5954 4.9243C24.545 4.95619 24.4878 4.97074 24.4304 4.96621C23.9828 4.91069 23.5383 4.82624 23.0989 4.71323C21.3679 4.34835 19.6159 4.13005 17.8572 4.06008C17.0392 4.02583 16.2202 4.07663 15.4102 4.21187C15.0383 4.26246 15.0623 4.21187 15.0383 4.21187C14.6385 3.7841 15.2583 3.53571 15.2343 3.55871ZM26.0297 3.15854C26.0297 3.15854 25.9857 3.8071 25.6299 3.83469C25.6299 3.83469 25.0181 3.7335 25.262 3.18154C25.4002 3.00639 25.5711 2.86957 25.7618 2.78137C25.7618 2.78137 26.1976 2.3536 26.1097 3.02975C26.1337 3.02515 26.0257 3.16314 26.0257 3.16314L26.0297 3.15854ZM11.5918 4.11067C12.463 3.18156 13.4494 2.40649 14.5186 1.81083C15.1983 1.48426 14.9784 2.00862 14.9784 2.00862C14.9784 2.00862 13.9508 3.38852 13.9748 3.41612C13.7349 3.7427 13.471 3.66911 13.515 3.64151C13.2948 3.67721 13.0812 3.75494 12.8833 3.87149C12.4434 4.04628 11.9636 4.29466 11.9437 4.29466C11.3719 4.35905 11.6078 4.10608 11.5878 4.10608L11.5918 4.11067ZM11.068 5.54117C11.7038 5.1916 11.3079 5.64237 11.3079 5.66997C11.136 5.81716 11.18 5.96894 11.18 5.96894C10.5203 6.09313 11.064 5.53657 11.064 5.53657L11.068 5.54117ZM8.34118 3.38392C8.34118 3.35633 8.5131 3.02975 8.60107 3.08035C8.62506 3.08035 8.49311 2.52839 8.88495 2.4042C8.88495 2.4042 9.16883 1.99942 9.25679 2.55138C9.38064 2.93155 9.52623 3.30187 9.69261 3.65991C9.7166 3.7105 9.58465 3.7611 9.82455 3.95888C9.87693 3.98799 9.92316 4.02989 9.96001 4.08167C9.99686 4.13345 10.0235 4.19386 10.0379 4.25868C10.0524 4.32349 10.0544 4.39116 10.0438 4.45696C10.0332 4.52276 10.0102 4.5851 9.97649 4.63963C10.0005 4.63963 9.67261 5.36638 9.76058 5.77116L10.5602 5.56877C10.5602 5.56877 10.9961 5.41698 10.6922 5.91835C10.6061 6.04148 10.4962 6.13973 10.3713 6.20523C10.2463 6.27072 10.1097 6.30165 9.97249 6.29552C9.85182 6.30406 9.7368 6.35731 9.64463 6.44731C9.64463 6.44731 9.31677 6.5715 9.31677 6.17133C9.25869 5.69122 9.29559 5.20223 9.42472 4.74083C9.38074 4.74083 9.57665 4.66263 9.42472 4.43725C9.44871 4.43725 9.07687 3.7105 8.96491 3.83469C9.00889 3.88529 8.72502 4.08767 8.81298 4.29466C8.83697 4.29466 9.12085 4.49705 8.72501 4.52005C8.56969 4.3952 8.44998 4.22025 8.38096 4.01724C8.31194 3.81424 8.2967 3.59227 8.33718 3.37933L8.34118 3.38392ZM4.88664 9.78667C4.88664 9.78667 4.88664 9.32671 5.14653 9.23471C5.14653 9.23471 5.27447 9.3681 5.2145 8.93113C5.28001 8.60908 5.43259 8.31921 5.65032 8.10319C6.31381 7.53887 7.01427 7.03447 7.74543 6.5945C7.74543 6.5945 8.09328 6.39211 8.22523 6.47031L8.36117 6.28172L8.18125 5.92295L8.22523 5.141C8.22523 5.141 8.40115 4.74083 8.48911 5.1916C8.59841 5.53145 8.59841 5.90507 8.48911 6.24493C8.48911 6.24493 8.35717 6.24492 8.33718 6.5255C8.33718 6.47491 8.42514 6.67729 8.18524 6.85208C7.47755 7.16729 6.82075 7.6166 6.24207 8.18139C6.10897 8.29939 5.96055 8.39253 5.80225 8.45737C5.69951 8.53443 5.61121 8.63436 5.54255 8.75127C5.47388 8.86818 5.42624 8.99971 5.40242 9.13812L5.27048 9.21171L5.33445 9.3635C5.39456 9.43172 5.43191 9.52209 5.43995 9.61879C5.44799 9.7155 5.42621 9.81237 5.37843 9.89246C5.24815 10.3251 5.04882 10.726 4.79068 11.0746C4.7467 11.0976 4.48281 11.1206 4.63474 10.6146L4.88664 9.78667ZM1.39212 16.8932C1.39212 16.8932 1.50007 16.7184 1.48008 16.6908C2.11707 15.6533 2.70695 14.5786 3.24733 13.471L3.50722 13.1214C3.55077 13.0306 3.60308 12.9458 3.66316 12.8685C3.77111 12.6201 3.85907 12.9467 3.85907 12.9697C3.88667 13.1436 3.85518 13.323 3.77111 13.471C3.70714 13.5998 3.24733 14.3036 3.24733 14.3036L3.02742 14.6025C2.82047 15.1357 2.55145 15.6339 2.22776 16.0836L1.95988 16.5022C1.676 16.7782 1.676 16.9622 1.676 16.9622L1.4361 17.3899L1.28416 17.2151L1.39212 16.8932ZM26.0217 27.3436C25.9137 27.4724 25.4539 27.293 25.4539 27.293C25.4539 27.293 25.0861 27.3206 25.0861 27.27C24.3328 27.1394 23.5662 27.1471 22.8151 27.293C22.2918 27.3728 21.7664 27.4326 21.2397 27.4724C21.0211 27.5035 20.8037 27.5449 20.588 27.5966C20.52 27.7714 19.7883 27.7208 19.7883 27.7208C19.3085 27.7208 19.2006 27.1458 19.1806 27.1182C19.1566 26.5433 18.9607 26.4651 18.9607 26.4421C18.7902 26.0775 18.6932 25.6735 18.6768 25.26C18.6768 24.8 18.8088 24.8 18.8088 24.8C18.8894 24.6349 18.9474 24.4565 18.9807 24.2711C19.1371 23.7608 19.2326 23.2285 19.2646 22.6888L19.3325 22.2886C19.5524 21.1571 19.7044 19.929 19.7044 19.9014C19.8763 19.4414 20.2481 20.4027 20.2481 20.4027C20.4844 20.863 20.8051 21.2586 21.1877 21.5618L21.4716 21.8102L21.7115 22.0632C22.0194 22.3898 21.7755 22.6888 21.7355 22.6888C21.7182 22.6949 21.7022 22.7055 21.6889 22.7197C21.6756 22.7339 21.6653 22.7515 21.6588 22.771C21.6522 22.7904 21.6496 22.8114 21.6511 22.8322C21.6527 22.853 21.6583 22.8732 21.6675 22.8911L21.5596 23.0935C21.5356 23.2913 21.4276 23.2913 21.4077 23.3189C21.3745 23.3297 21.3463 23.355 21.3291 23.3894C21.3119 23.4237 21.3071 23.4645 21.3157 23.5029C21.2077 23.6961 21.1638 23.8479 21.1438 23.8479L21.0358 24.0273C21.0144 24.1946 20.9851 24.3604 20.9478 24.524C20.9258 24.778 20.9676 25.0339 21.0683 25.2614C21.1689 25.4889 21.3242 25.6783 21.5156 25.8073C21.5892 25.8735 21.6779 25.9135 21.7709 25.9225C21.864 25.9315 21.9573 25.909 22.0394 25.8579H24.0026C24.0026 25.8579 24.1545 25.8809 24.1545 25.9085C24.3504 26.0557 24.6543 25.6786 24.6543 25.7062C24.8742 25.4808 25.0541 25.5268 25.0261 25.5544C25.1247 25.5252 25.2291 25.5404 25.3183 25.5968C25.4074 25.6532 25.4745 25.7466 25.5059 25.8579C25.7258 26.0051 25.9058 26.6859 25.9457 26.7365C26.0297 26.7871 26.2296 27.0631 26.1856 27.0355C26.3296 27.293 26.0657 27.293 26.0217 27.3436ZM24.2145 24.7816C24.0425 25.0622 23.015 25.0668 23.015 25.0668L21.8994 24.9702C21.8358 24.9576 21.775 24.9303 21.7207 24.89C21.6664 24.8497 21.6198 24.7972 21.5836 24.7356C21.5411 24.6083 21.5411 24.4674 21.5836 24.34V24.2619V24.3216C21.743 23.7707 22.029 23.2796 22.4112 22.9003C22.6591 22.6658 22.835 22.8268 22.851 22.8452C23.0709 23.0981 23.4028 23.4983 23.6947 23.8479C23.9866 24.1975 24.1505 24.3952 24.2265 24.4734C24.3024 24.685 24.2465 24.777 24.2265 24.8092L24.2145 24.7816ZM37.249 31.5477C37.249 31.5201 37.4449 31.5477 37.4449 31.5477L37.6648 31.5983C37.6648 31.5983 37.8407 31.8237 37.6208 31.9525L37.3809 31.9019C37.3809 31.9019 36.9211 31.7915 37.249 31.5661V31.5477ZM36.4213 32.877C36.2894 33.1806 36.6172 33.2036 36.6172 33.2036H37.6648L37.6848 33.0288L37.8607 32.9046C37.8757 32.8128 37.9091 32.7262 37.9584 32.6519C38.0077 32.5777 38.0715 32.5177 38.1446 32.4769C38.3405 32.2515 38.0366 32.0169 37.9047 32.0491L37.7527 31.8237C37.7527 31.8237 37.9926 31.6719 37.9926 31.6995C38.2012 31.7261 38.3985 31.822 38.5604 31.9755C38.5942 31.9928 38.6241 32.0188 38.6478 32.0515C38.6714 32.0843 38.6881 32.1229 38.6966 32.1643C38.7052 32.2057 38.7052 32.2488 38.6969 32.2903C38.6885 32.3318 38.6719 32.3704 38.6484 32.4033C38.6044 32.6287 38.4285 32.6287 38.4085 32.6517C38.2765 32.854 38.2965 32.9276 38.2965 32.9276L38.1446 32.9782L38.1006 33.1806C37.9393 33.4072 37.7476 33.6029 37.5328 33.7602C37.5328 33.7602 37.4009 33.9074 37.4009 33.8844C37.161 33.7096 36.8571 33.9856 36.8571 33.958C36.6646 33.9992 36.4668 33.9961 36.2753 33.9487C36.0838 33.9013 35.9024 33.8107 35.7416 33.682L35.4817 33.3554L35.2858 33.2818L35.1298 33.13L34.846 32.9782C34.846 32.9782 34.718 32.9552 34.718 32.9782C34.4821 32.8659 34.2297 32.8065 33.9743 32.8034C33.6665 32.7529 33.9064 32.4769 33.9064 32.4769C34.1703 32.3757 34.0623 32.3021 34.0383 32.3021C34.1546 32.1058 34.313 31.9474 34.4981 31.8421H34.674C34.7542 31.7229 34.8585 31.6281 34.9779 31.5661C34.9779 31.5661 35.2178 31.4143 35.1978 31.4649C35.3937 31.3914 35.4137 31.2626 35.4377 31.2902C35.5457 31.0648 35.6976 31.1614 35.6976 31.1614L36.0495 31.2166C36.0737 31.2196 36.0971 31.2291 36.1177 31.2441C36.1383 31.2592 36.1557 31.2795 36.1684 31.3035C36.1812 31.3275 36.189 31.3545 36.1912 31.3825C36.1935 31.4105 36.1901 31.4387 36.1814 31.4649C36.1814 31.6167 35.9375 31.5385 35.9375 31.5385L35.7216 31.5891L35.5697 31.6903L35.3498 31.9939C35.1538 32.2469 35.3697 32.2193 35.3697 32.2193C35.7696 32.3941 35.9615 32.5965 35.9375 32.6195C36.0495 32.7988 36.3773 32.4217 36.3773 32.4447C36.6372 32.2423 36.4413 32.8724 36.4213 32.8954V32.877ZM46.4171 25.2922C45.4702 25.9815 44.7423 27.0044 44.342 28.2084C44.1781 28.7361 43.9507 29.2346 43.6662 29.6895C43.4785 29.7284 43.2862 29.7284 43.0985 29.6895C42.6495 29.6796 42.2029 29.6117 41.767 29.4871C41.767 29.4871 40.6955 29.2111 40.1277 29.1375C40.1277 29.1099 39.0802 29.1375 39.6919 28.8385C40.3871 28.7365 41.0864 28.6767 41.787 28.6591C41.9745 28.6636 42.1601 28.6157 42.3279 28.5196C42.4957 28.4235 42.6408 28.2819 42.7506 28.1072C43.693 26.834 44.8419 25.7841 46.1332 25.0162C46.1332 25.0162 47.1927 24.5838 46.4211 25.3106L46.4171 25.2922ZM78.4555 8.88974C77.7714 9.86007 76.9053 10.6397 75.922 11.1702C74.9388 11.7008 73.8639 11.9684 72.7779 11.9531C70.4529 11.756 68.1535 11.2671 65.9208 10.495C64.3495 10.1454 63.5618 12.4545 63.5618 12.4039C63.2999 12.9869 62.8952 13.4688 62.3978 13.79C61.9004 14.1113 61.332 14.2579 60.763 14.2116C59.3909 14.0628 58.0072 14.1481 56.6567 14.4645C55.4333 14.7681 53.602 18.8848 53.5581 18.8848C52.7834 20.4635 51.6205 21.7437 50.2155 22.5646C49.1879 23.1671 46.3491 24.4504 46.3491 24.4504C46.2277 24.5455 46.0922 24.6141 45.9493 24.6528C44.6069 25.5499 43.3853 26.6671 42.3228 27.9692L42.2149 28.1164L41.7351 28.167L41.4952 28.2912L41.2952 28.2682C41.1137 28.2616 40.9321 28.2693 40.7515 28.2912C40.4676 28.3418 39.6399 28.4706 39.6399 28.4706L37.8487 28.8983L37.6288 29.0225C37.107 29.4996 36.5152 29.8657 35.8815 30.1034C35.5937 30.2522 35.3342 30.4647 35.1179 30.729C35.1179 30.729 34.718 31.0832 34.718 31.1062C34.4102 31.4327 34.4301 31.2304 34.4301 31.2304L33.9943 31.5569L33.9503 31.7363C33.6225 32.1963 33.4066 32.1963 33.3826 32.1595C32.7658 32.3521 32.2026 32.7244 31.7473 33.2404C31.5953 33.544 31.3954 33.521 31.3954 33.521C31.3954 33.521 30.1959 33.521 30.1959 33.567C29.7815 33.6485 29.3783 33.7923 28.9964 33.9948C28.7126 34.1466 28.5966 34.1466 28.5966 34.119C28.4007 34.119 28.1608 34.119 28.1168 34.073C27.8329 33.8936 26.9373 34.1466 26.9373 34.1466C26.9373 34.1466 26.1976 34.1466 26.1377 34.119C25.8298 34.119 26.1816 33.544 26.1816 33.544L26.3096 33.4934L26.4215 33.3416C26.5177 33.1864 26.6276 33.043 26.7494 32.9138L26.9013 32.7391C27.0741 32.6272 27.2711 32.5745 27.4691 32.5873C27.9049 32.5873 27.753 32.7896 27.753 32.8126C27.709 32.992 27.2732 32.992 27.2732 32.9644C27.1782 32.9654 27.0871 33.0076 27.0181 33.0827C26.9491 33.1578 26.9074 33.2602 26.9013 33.3692C26.7694 33.6176 26.9893 33.567 26.9893 33.567H27.789C28.2248 33.544 28.3127 33.6452 28.3127 33.6452C28.8125 33.797 28.9245 33.521 28.9445 33.521C29.1404 33.1944 29.2523 33.1944 29.2523 33.2174C29.6522 32.992 29.2084 33.015 29.2084 32.992C29.0524 32.992 29.0324 32.9414 29.0124 32.9138C28.8805 32.7391 28.8565 32.8632 28.8365 32.8632C28.7459 32.8295 28.6939 32.7912 28.6806 32.7483L28.6166 32.8402C28.6166 32.8402 28.3727 33.015 28.3087 32.8402C28.2648 32.8632 28.1128 32.6885 28.5047 32.5643C28.5047 32.5643 28.6486 32.5643 28.6886 32.6379C28.7411 32.5497 28.8147 32.481 28.9005 32.4401C29.2572 32.1718 29.5812 31.8501 29.8641 31.4833C30.485 30.7942 31.2404 30.2863 32.0671 30.0022C32.331 29.7263 32.7229 29.3997 32.7229 29.3997L33.1587 29.2203L33.4226 28.9949L33.7504 28.8477C33.8536 28.7019 33.9932 28.596 34.1503 28.5441C34.4541 28.3188 34.5861 28.2682 34.5861 28.2912C34.8006 28.1714 35.0053 28.0298 35.1978 27.868C35.8735 27.5874 36.7492 27.1137 36.7492 27.1137C36.8547 27.0483 36.9628 26.9884 37.073 26.9343C37.3721 26.7496 37.6338 26.4941 37.8407 26.1845C38.1322 25.8281 38.4904 25.5528 38.8883 25.3796C39.1481 25.352 39.1282 25.2048 39.1482 25.2048C39.1527 25.0896 39.186 24.9785 39.2442 24.8846C39.3024 24.7908 39.3829 24.7183 39.476 24.6758L39.52 24.501L39.7599 24.2481L39.8718 24.0457L40.4156 23.1257L40.4836 22.9003C40.4851 22.6626 40.5133 22.426 40.5675 22.1966C40.7255 21.899 40.8226 21.564 40.8514 21.2169L40.9194 20.9409C40.9834 20.5913 40.8754 20.5131 40.8754 20.5131L40.8954 20.2877L40.8754 20.0117C40.9998 19.8238 41.0685 19.5948 41.0713 19.3586C41.2078 18.8876 41.2231 18.3813 41.1153 17.9005L41.0713 17.5739C41.1593 17.1738 41.0713 17.0726 41.0713 17.045C41.0913 16.8472 40.1557 16.769 40.1557 16.769L39.9798 16.746C39.9798 16.746 39.7599 16.8702 39.7399 16.8702C39.2161 17.0726 39.432 17.8269 39.432 17.8775C39.432 18.1765 39.2601 18.1259 39.2361 18.1259C39.0402 18.1535 39.0842 18.2547 39.0402 18.2271C38.9634 18.2916 38.8743 18.3342 38.7803 18.3513C38.5948 18.387 38.4118 18.4377 38.2325 18.5031L38.0126 18.6042L37.8407 18.6272C37.7711 18.6654 37.697 18.6917 37.6208 18.7054C37.343 18.685 37.0658 18.7552 36.8211 18.9078C36.8211 18.9078 36.6012 18.9814 36.5812 18.9814C36.3752 18.9444 36.1644 18.9697 35.9695 19.055C35.0235 19.4206 34.0612 19.7277 33.0867 19.975C32.629 20.1136 32.16 20.1968 31.6873 20.2233C31.0996 20.3245 31.2875 20.2003 31.2515 20.1727C31.0721 20.0842 30.8789 20.0385 30.6837 20.0385C30.4885 20.0385 30.2954 20.0842 30.116 20.1727C29.8321 20.3475 29.5242 20.6327 29.5242 20.6327C29.3523 20.7063 29.3283 20.5591 29.3083 20.5591C29.1124 20.3567 29.3083 20.1543 29.3083 20.0991C29.4163 19.8002 29.2204 19.8002 29.2204 19.8002C29.1148 19.7566 29.0044 19.7303 28.8925 19.722C28.8045 19.7726 28.6966 19.7496 28.6526 19.7726C28.3247 19.7726 28.5446 19.998 28.5206 19.975C28.5886 20.4349 28.4327 20.3245 28.4567 20.2739C28.3247 20.2739 28.3687 20.6005 28.3687 20.6005C28.3687 20.9271 28.2807 21.2537 28.2368 21.2537C28.0848 21.4331 28.1928 21.6078 28.1928 21.5802C28.0408 21.9574 28.5007 22.0402 28.5007 22.0862C28.5774 22.1244 28.6419 22.1893 28.6849 22.2718C28.728 22.3543 28.7474 22.4503 28.7406 22.5462C28.9365 23.3465 29.3083 24.4274 29.3283 24.478C29.6083 25.0267 29.7598 25.6495 29.7681 26.2857C29.7681 26.2857 29.8521 26.6399 29.8961 26.6629C30.3015 26.9569 30.6577 27.3324 30.9476 27.7714C31.4034 28.1992 30.7717 27.9692 30.7477 27.9692C30.6918 27.9674 30.6371 27.9507 30.5878 27.9204C30.5385 27.89 30.4961 27.8469 30.4638 27.7944C30.4638 27.7944 30.116 27.4908 30.064 27.4678C29.976 27.316 29.8681 27.2654 29.8481 27.293C29.6636 27.1137 29.4463 26.9848 29.2124 26.9159L28.9964 26.6629C28.8758 26.5319 28.8041 26.3521 28.7965 26.1615C28.7495 25.5336 28.6326 24.9153 28.4487 24.3216C28.4487 24.3216 28.5126 24.1699 28.2528 23.7927C28.195 23.6426 28.1443 23.489 28.1008 23.3327C28.039 23.139 27.9586 22.9538 27.8609 22.7808C27.8247 22.6928 27.7805 22.6096 27.729 22.5324C27.5626 22.4011 27.4455 22.2023 27.4011 21.9758L27.2932 21.6492C27.2692 21.6768 27.0932 21.525 27.2492 21.2491C27.2932 21.2491 27.3571 21.3227 27.3571 20.6971C27.3571 20.6741 27.2252 20.3199 27.9009 19.7772C27.9009 19.7772 28.4487 19.4782 28.3007 18.9998C28.3007 19.0274 27.9729 18.0477 28.8045 17.9971C29.0102 17.9964 29.2126 18.0566 29.3923 18.1719C29.6616 18.3528 29.9591 18.4715 30.2679 18.5215C30.8013 18.6895 31.3559 18.7502 31.9072 18.7008C31.8832 18.6732 31.9072 18.5721 32.343 18.5997C33.2318 18.6342 34.1206 18.5321 34.9859 18.2961C35.1546 18.1985 35.3409 18.148 35.5297 18.1489C35.8804 17.9729 36.2644 17.9032 36.6452 17.9465C36.8456 17.9327 37.0366 17.8439 37.189 17.6935C37.169 17.6935 37.189 17.4911 37.6248 17.3669C37.7444 17.34 37.8565 17.2804 37.9519 17.1932C38.0472 17.1059 38.1229 16.9936 38.1726 16.8656C38.1926 16.838 39.0442 15.6329 39.8958 15.6835C40.3663 15.6685 40.8325 15.7903 41.2513 16.0376C41.3786 16.0935 41.5176 16.1041 41.6502 16.0681C41.7828 16.032 41.9029 15.9509 41.9949 15.8352C41.9949 15.8858 43.3464 14.4277 43.1305 15.6835C43.1305 15.6329 42.8666 16.0376 42.6067 17.3945C42.6067 17.3439 42.5827 17.3945 42.5827 17.3945C42.2772 18.5882 42.1422 19.8309 42.1829 21.0743C42.202 21.4198 42.238 21.7638 42.2908 22.1046C42.3458 22.2823 42.3584 22.4736 42.3275 22.6588C42.2966 22.844 42.2232 23.0163 42.1149 23.1579C41.7204 23.5627 41.3419 23.9813 40.9794 24.4136C40.9794 24.4136 39.9318 25.8211 39.584 26.3501C39.56 26.3731 39.1442 26.8101 39.9118 27.155C40.2632 27.2345 40.6223 27.2592 40.9794 27.2286C41.1884 27.1793 41.4022 27.1623 41.6151 27.178C41.6151 27.178 42.4148 27.155 42.5307 26.7181C42.5307 26.7411 42.7066 26.5157 42.9306 26.3133C42.9306 26.2903 43.9781 24.9564 44.0861 24.6804C44.1921 24.5637 44.2682 24.4158 44.306 24.2527C44.306 24.2527 44.13 23.7283 44.9617 23.1487C45.4197 22.9127 45.8644 22.6439 46.2931 22.3438C46.2931 22.3208 46.8369 21.8838 46.8369 21.8838C47.1658 21.4928 47.5584 21.1802 47.9924 20.9639C47.9924 20.9133 48.3203 20.7109 48.4722 20.4349C48.4722 20.4855 48.8441 19.6346 49.1719 20.0577C49.2159 20.0577 49.2599 20.2877 49.0839 20.6879C49.1079 20.6879 48.8001 21.1479 49.2599 20.8397C49.3782 20.7878 49.4942 20.7295 49.6077 20.6649L49.8476 20.4625C49.96 20.1956 50.1344 19.9695 50.3514 19.8094C50.3514 19.7818 50.6113 19.5058 50.8512 19.1286C51.1065 18.7933 51.3131 18.4128 51.4629 18.0017C51.4629 18.0017 52.0747 14.5335 54.0419 14.5335C54.0419 14.5335 55.2214 14.5841 55.5252 14.0276C55.5252 14.0276 55.5692 13.5676 57.0086 13.4756C57.0086 13.425 59.4556 13.425 61.5507 13.5262C61.9116 13.5802 62.278 13.4965 62.5936 13.288C62.9092 13.0794 63.1566 12.7575 63.2979 12.3717C63.3419 12.3211 63.9976 9.30831 65.613 9.61189C66.0342 9.6194 66.45 9.72257 66.8364 9.91546C68.8631 10.692 70.99 11.0653 73.1258 11.0194C73.9849 11.0318 74.8367 10.8373 75.6265 10.4484C76.4164 10.0594 77.1267 9.48463 77.7118 8.76095C79.3751 5.89535 77.312 7.15106 77.364 7.10046C75.3167 7.65131 73.1937 7.72015 71.1226 7.30285C68.9443 6.92012 66.7859 6.39957 64.6574 5.74356C64.4434 5.71237 64.2287 5.68784 64.0136 5.66997C63.5511 5.59753 63.0802 5.65932 62.6438 5.84972C62.2073 6.04012 61.8192 6.35307 61.5147 6.76009C60.816 8.10191 60.3972 9.61179 60.2912 11.1712C60.2472 11.2218 60.1153 12.7305 57.9322 12.2245C55.4195 11.5278 53.0757 10.1882 51.0751 8.30558C49.6305 7.21623 48.0349 6.41824 46.3571 5.94594C45.6843 5.74694 44.9787 5.74694 44.306 5.94594C42.8033 6.2626 41.4011 7.03422 40.2437 8.18139C40.2637 8.18139 39.8958 8.23198 39.8439 8.45737C39.8439 8.45737 39.6 8.39297 39.516 8.53096C39.516 8.55856 39.472 8.71035 38.9043 8.53096C38.1132 8.36349 37.3095 8.28798 36.5053 8.30558C35.1483 8.47326 33.7834 8.54086 32.419 8.50796C32.443 8.50796 30.2599 8.35618 29.6922 8.28258C29.2245 8.14474 28.7297 8.19841 28.2927 8.43437C28.3127 8.45737 27.8329 8.86214 27.5291 8.68275C27.4562 8.63342 27.3933 8.56694 27.3444 8.48767C27.2955 8.4084 27.2617 8.31813 27.2452 8.22278C27.2452 8.17679 27.0053 7.69842 25.6459 7.79961C25.6019 7.79961 25.1661 7.74902 25.1661 7.74902C25.1661 7.74902 24.9661 7.79962 24.5983 7.39484C23.7792 6.66992 22.7909 6.24234 21.7595 6.16673C21.7595 6.18973 19.1366 5.61477 17.6972 5.51358L16.6777 5.46298C16.342 5.45604 16.0102 5.37969 15.6981 5.23759C15.295 5.12496 14.8735 5.13448 14.4746 5.26519C14.263 5.3492 14.0423 5.39874 13.8189 5.41238L13.555 5.46298C13.3659 5.59596 13.1427 5.64959 12.9232 5.61477C12.8353 5.61414 12.7493 5.64532 12.6776 5.70392C12.6058 5.76252 12.5519 5.84558 12.5234 5.94135C12.5234 5.98734 12.4115 6.08853 12.5674 6.46571C12.8435 7.22224 12.9915 8.03252 13.0032 8.85294C13.0723 8.90528 13.1378 8.96372 13.1991 9.02773C13.1991 9.02773 13.599 9.30371 13.6589 9.58429C13.6589 9.60729 13.7229 9.75908 14.1147 9.91087C14.2801 9.98099 14.4206 10.112 14.5146 10.2834C14.5146 10.311 14.6225 10.587 15.2103 10.9136C15.2103 10.9136 18.293 13.0248 18.4889 13.2732C18.4889 13.2732 19.1446 13.7792 19.8203 14.3312C19.8643 14.3036 20.0162 14.6071 20.0602 15.1315C20.0123 15.4294 20.0429 15.7369 20.1482 16.0146C20.1482 15.987 20.496 17.5693 20.628 16.8656C20.628 16.815 20.4081 15.7617 20.9758 15.4351L21.1318 15.3109C21.1809 15.2252 21.2484 15.1555 21.3277 15.1085C21.3717 15.0579 21.6116 14.9567 21.4356 14.5289C21.3944 14.4232 21.3306 14.3311 21.2503 14.2611C21.1699 14.1912 21.0755 14.1457 20.9758 14.1288C20.6589 14.0481 20.3762 13.8432 20.1762 13.5492C20.0572 13.4415 19.9331 13.3417 19.8043 13.2502C19.8043 13.2502 18.7568 12.2429 18.7368 12.2429C17.0819 11.1567 15.4801 9.96667 13.9388 8.67815C12.7153 7.62023 13.8948 8.27338 13.8948 8.27338C13.8948 8.27338 15.1583 8.93113 15.2463 9.02773C16.296 9.34172 17.3196 9.76193 18.305 10.2834C19.5477 11.0278 20.719 11.9205 21.7995 12.9467C22.4552 13.8666 22.5392 13.5492 22.5392 13.5998C22.6045 13.5733 22.6747 13.5668 22.7428 13.5809C22.811 13.595 22.8748 13.6293 22.928 13.6803C22.9812 13.7313 23.022 13.7973 23.0464 13.8719C23.0707 13.9465 23.0778 14.0271 23.067 14.1058C23.0649 14.2965 23.0997 14.4855 23.1688 14.6589C23.238 14.8323 23.3397 14.9859 23.4668 15.1085L22.7231 16.1618C22.7231 16.1618 22.4632 16.1618 22.4192 16.1112C22.1553 15.4075 21.7195 16.7184 21.6755 16.7184C21.5507 16.9144 21.4661 17.1404 21.4281 17.3793C21.39 17.6183 21.3994 17.8641 21.4556 18.0983C21.5876 18.9538 20.8879 17.9005 20.8439 17.9005C21.7195 20.4119 22.0234 19.4552 21.9794 19.4552C22.4632 18.9952 23.6827 20.7615 23.7267 20.8121C24.6926 21.949 25.584 23.1666 26.3935 24.455C26.7174 25.1082 27.3092 26.4421 27.3092 26.4651C27.4171 26.9941 27.5291 26.8699 27.5291 26.8699C27.5291 26.8699 27.8769 27.2194 27.8769 27.2424C28.5526 27.5184 28.4207 27.569 28.4887 27.5966C28.6893 27.8416 28.9609 27.9937 29.2523 28.0244C29.8001 27.8726 29.8441 28.0244 29.8441 28.098C29.8864 28.2082 29.9491 28.3064 30.0278 28.3859C30.1066 28.4653 30.1994 28.524 30.2999 28.558C30.5638 28.8063 30.3439 28.7833 30.3439 28.7833L30.8677 29.4595C31.0436 29.7631 30.8237 29.8367 30.7797 29.8137C30.7064 29.8317 30.6374 29.8678 30.5773 29.9194C30.5173 29.971 30.4677 30.0369 30.4318 30.1126C30.2559 30.338 30.1679 30.1908 30.1679 30.1908L29.7681 29.9149C29.7681 29.9149 29.6362 29.7355 29.6122 29.7125C29.5143 29.5569 29.3815 29.4348 29.228 29.3595C29.0744 29.2841 28.9059 29.2583 28.7406 29.2847C28.1728 29.2847 28.1088 29.0593 28.0408 29.0087C27.801 28.7097 27.8249 28.7097 27.781 28.7097C27.4651 28.4 27.1856 28.0443 26.9493 27.6518C26.76 27.3538 26.6654 26.9901 26.6814 26.6215C26.4611 26.4098 26.2755 26.1543 26.1337 25.8671C26.1337 25.8671 25.7858 25.6648 25.7618 25.6418C25.4579 25.5176 25.414 25.0392 25.414 25.0392L25.282 24.8874C24.6592 23.7963 23.8853 22.8298 22.991 22.0264C22.6831 21.6722 22.4872 21.6722 22.4872 21.6722L22.0874 21.571C22.0874 21.571 21.7155 21.2951 21.6875 21.2951C21.2877 21.0191 21.1198 20.7937 21.1438 20.7937C20.5514 20.1643 20.0755 19.404 19.7444 18.5583C19.7444 18.5583 19.6804 18.3329 19.6804 18.3053C19.6171 18.2295 19.5686 18.1389 19.5382 18.0397C19.5079 17.9406 19.4964 17.835 19.5045 17.7303C19.6757 17.1423 19.6757 16.5061 19.5045 15.918C18.8351 15.1861 18.0945 14.5456 17.2974 14.0092C16.1379 13.0294 13.2991 11.2494 13.2991 11.2494L13.1711 11.1482C13.1936 10.9312 13.1936 10.712 13.1711 10.495C13.0832 9.57509 12.9312 10.3938 12.9312 10.3938C12.7468 11.3482 12.3029 12.2102 11.6638 12.8547C11.4147 13.2486 11.0737 13.5532 10.6802 13.7332C10.1258 14.1984 9.52596 14.5875 8.89294 14.8923C8.21615 15.3562 7.55963 15.8582 6.92578 16.3964C6.49226 16.9442 6.04834 17.4809 5.59434 18.0063C5.36792 18.175 5.16786 18.3865 5.00259 18.6319C4.9905 18.7271 4.95274 18.8156 4.89463 18.8848C4.85234 19.1631 4.7784 19.4337 4.67473 19.6898C4.69872 20.5407 4.37086 20.4671 4.37086 20.4671C4.37086 20.4671 3.82309 20.6189 3.8031 20.6189C3.53921 20.6925 3.58319 20.5683 3.53921 20.5683C3.41126 20.1405 3.10339 20.6419 3.0834 20.6695C2.9142 20.6558 2.74593 20.6296 2.57961 20.5913C2.40246 20.5838 2.22545 20.6102 2.05583 20.6695C1.96537 20.6561 1.88223 20.6053 1.82191 20.5266C1.76158 20.4479 1.7282 20.3467 1.72797 20.2417C1.75886 20.0643 1.74356 19.8803 1.68399 19.7128C1.50807 19.3632 1.64001 19.2528 1.64001 19.2528C1.67697 19.2054 1.70087 19.1464 1.7087 19.0834C1.71653 19.0203 1.70793 18.9561 1.68399 18.8986C1.4241 18.2731 1.33614 18.4985 1.33614 18.5491C1.33614 18.848 1.09624 18.5721 1.07225 18.5721C0.592454 18.2455 1.26817 17.9465 1.26817 17.9465C1.55294 17.7295 1.89062 17.6231 2.23176 17.6429C2.16379 17.3945 2.53563 17.2151 2.53563 17.183C2.40369 16.93 3.25533 15.803 3.25533 15.803C3.41126 15.6053 3.47524 15.4305 3.45524 15.4029C3.52627 15.18 3.64608 14.982 3.8031 14.8279C3.9468 14.584 4.08023 14.3322 4.20293 14.0736C4.48681 13.6688 5.55436 11.5346 5.55436 11.5575C5.73028 11.3322 5.49038 11.0562 5.47039 11.0332C5.18251 10.403 5.59834 10.403 5.57835 10.403C5.9262 10.403 5.83824 9.90166 5.83824 9.90166C6.23807 8.89893 6.88979 9.02313 6.8658 9.04612C7.41357 9.27151 7.26563 9.04612 7.26563 9.04612C7.85738 9.07372 7.94534 9.07372 7.94534 9.12432C8.27321 9.58429 8.44513 9.29911 8.44513 9.27151C8.64505 9.12432 8.84496 9.55209 8.84496 9.55209C8.84496 9.55209 8.84496 9.69928 9.08486 9.82807C9.1504 9.83361 9.21337 9.85968 9.26693 9.90347C9.3205 9.94726 9.36262 10.0071 9.38873 10.0765C9.53835 10.1505 9.68389 10.235 9.82455 10.3294C9.82455 10.3294 10.1964 10.3018 10.1964 10.4812C10.3719 10.4497 10.5513 10.4939 10.7002 10.6054C10.7202 10.6054 10.6762 10.7296 10.9601 10.7066C11.1745 10.5935 11.4046 10.525 11.6398 10.5042C11.6398 10.5042 12.4035 9.90166 12.4914 9.52449C12.5862 8.8997 12.5781 8.25996 12.4674 7.63862C12.3342 7.00828 12.1128 6.40706 11.8117 5.85855L11.8517 5.46298L11.9836 5.36179C12.1235 5.31883 12.2507 5.23298 12.3515 5.1134C12.3515 5.1134 12.3515 5.03521 12.5514 5.01221C12.5514 4.98461 14.5506 4.98461 14.5506 4.98461L14.9024 4.93401C15.1799 4.95695 15.4589 4.93214 15.7301 4.86042C15.754 4.86042 15.838 4.70863 16.3858 4.73623C16.3858 4.73623 17.9131 4.78682 18.3849 4.83742C20.5948 5.01161 22.7829 5.44939 24.9142 6.14373C25.0508 6.16909 25.1848 6.21071 25.314 6.26792H25.7938C25.7938 6.26792 25.6619 6.16673 26.0137 6.16673C25.9897 6.16673 26.5135 6.21732 26.2096 5.78955C26.2296 5.81715 25.6858 5.43998 25.8098 5.164C25.7858 5.164 25.8098 4.91102 25.8098 4.91102L25.9617 4.75923C26.1582 4.66785 26.3481 4.55865 26.5295 4.43265C26.5295 4.43265 26.6175 4.18427 26.9013 4.25786C27.5262 3.95538 28.1888 3.76907 28.8645 3.7059C28.8885 3.7059 29.3243 3.53111 29.1284 4.03248C29.0605 4.14531 29.0154 4.27418 28.9964 4.40965C28.9964 4.40965 28.9085 4.56144 28.6486 4.65804C28.2657 4.72389 27.8911 4.84281 27.5331 5.01221C27.5531 5.01221 27.4011 4.91102 27.3371 5.1134C27.3172 5.1134 26.8773 5.31119 26.9373 5.57337L27.0013 5.77576L27.0213 6.00114C27.0213 6.00114 27.0892 6.46111 27.4211 6.42891C28.6443 6.73417 29.8839 6.94469 31.1315 7.05906C33.0382 7.1759 34.9494 7.14978 36.8531 6.98087C38.4843 6.83206 40.1047 6.55544 41.7031 6.15293C43.1237 5.79473 44.575 5.62344 46.0292 5.64237C47.9837 5.98146 49.8565 6.78 51.5309 7.9882C53.2823 9.42564 55.2313 10.5141 57.2965 11.208C57.2965 11.1574 58.7798 11.6081 58.7798 11.6081C58.7798 11.6081 60.1753 12.0129 60.0473 10.656C60.0473 10.6974 59.9833 7.52823 61.2028 6.33692C62.0052 5.56662 63.025 5.16086 64.0696 5.1962C64.0696 5.1962 65.2011 5.2468 65.2011 5.27899C67.5601 5.98274 69.7872 6.43351 69.9191 6.4841C72.3616 7.27073 74.9562 7.16465 77.344 6.18053C78.8274 5.32959 78.8714 6.12993 78.8714 6.12993C79.0077 7.08292 78.8627 8.06097 78.4595 8.90814L78.4555 8.88974ZM30.7397 26.7181C30.4798 26.7687 30.4358 26.6675 30.4358 26.6675C30.3479 26.5157 30.2599 26.3915 30.2599 26.3915C29.9121 26.0373 30.088 25.7613 30.064 25.7613C30.1005 25.531 30.0696 25.2932 29.976 25.0852C29.8041 24.7816 30.02 24.7034 30 24.708C30.251 24.6926 30.4908 24.5838 30.6833 24.3979C30.8759 24.2121 31.0107 23.9593 31.0676 23.6777C31.1405 23.4922 31.2694 23.3433 31.4304 23.2587C31.5914 23.1742 31.7736 23.1596 31.9432 23.2177H33.0147C33.2609 23.1813 33.5104 23.1891 33.7544 23.2407C34.1543 23.3419 33.6665 23.9675 33.6665 24.0227C33.582 24.2353 33.4614 24.4262 33.3117 24.5842C33.162 24.7422 32.9862 24.8641 32.7948 24.9426C32.443 25.0208 32.395 25.0438 32.395 25.0438C32.1176 25.2776 31.8872 25.5772 31.7193 25.9223C31.4554 26.5019 31.3195 26.3823 31.3674 26.3823C31.1076 26.3823 31.0396 26.4835 31.0396 26.5111C30.7197 26.6215 30.7397 26.7181 30.7397 26.7181ZM31.2235 27.0677H31.2835C31.4394 26.9665 31.7153 26.8147 31.7153 26.8147L31.7993 26.7687C32.0691 26.5423 32.2907 26.2481 32.447 25.9085L32.495 25.8211C32.6629 25.4394 33.2626 25.2646 33.2626 25.2646C33.7234 24.9637 34.09 24.5034 34.3102 23.9491C34.6061 23.5351 34.706 23.2193 34.6101 23.0015C34.5679 22.9247 34.5085 22.8624 34.4381 22.8212C34.3678 22.7799 34.2891 22.7612 34.2102 22.767L31.4434 22.7394C31.0916 22.7394 30.7437 23.0475 30.4078 23.7053L30.3879 23.7467C30.2199 24.0963 30.032 24.0089 30.028 24.0089C29.7401 23.8617 29.6282 22.8038 29.6722 22.0954C29.6722 22.0954 29.5842 21.7688 29.7721 21.6354C29.9022 21.5559 30.0489 21.5193 30.1959 21.5296H30.2239L31.1115 21.4653C31.6193 21.4239 31.8712 21.4055 31.9952 21.3779C33.607 21.1838 35.1909 20.7557 36.7092 20.1037C37.5088 19.791 38.1686 19.4966 38.5924 19.3034C39.0162 19.1102 39.2561 18.9952 39.3521 18.9308C39.3946 18.9079 39.441 18.8959 39.488 18.8959C39.535 18.8959 39.5814 18.9079 39.6239 18.9308C39.8156 19.1062 39.9473 19.3538 39.9958 19.63C40.089 20.6574 39.9546 21.6952 39.605 22.6467C39.2554 23.5982 38.7021 24.4323 37.9966 25.0714C37.3189 25.4604 36.559 25.6199 35.8056 25.5314C35.2647 25.4897 34.7259 25.6407 34.2622 25.9637C33.7864 26.3271 33.0627 26.7963 32.5949 27.109C32.4053 27.2276 32.2199 27.355 32.0392 27.4908C31.7993 27.6196 31.5354 27.3896 31.3914 27.2654L31.2835 27.1826C31.1995 27.1458 31.1995 27.0815 31.2235 27.0815V27.0677ZM34.4221 27.6472C33.9359 27.8307 33.4783 28.1024 33.0667 28.4522C33.0667 28.4522 32.7628 28.7281 32.7429 28.7281C32.371 28.9029 32.2591 28.4016 32.2591 28.4016C32.1071 28.075 32.2591 28.075 32.2591 28.075C32.2591 28.075 32.5669 27.8496 32.5869 27.8496C32.8556 27.7164 33.1009 27.5278 33.3106 27.293C33.4476 27.1481 33.5932 27.0144 33.7464 26.8929L34.1463 26.7181L34.6261 26.5939C34.7165 26.4635 34.8335 26.3608 34.9667 26.295C35.1 26.2292 35.2453 26.2023 35.3897 26.2167C35.7616 26.2397 35.7376 26.1385 35.7376 26.1661C35.957 26.1437 36.1777 26.1421 36.3973 26.1615C36.7252 26.2627 36.9011 26.2397 36.8771 26.2627C37.5768 26.3639 36.9011 26.6905 36.9011 26.6905L35.5897 27.2194C35.5897 27.2194 35.1099 27.4678 35.0859 27.4678C34.826 27.6472 34.87 27.546 34.87 27.546C34.7111 27.5689 34.5535 27.6026 34.3982 27.6472H34.4221Z" fill="#FBAD34"/>
</svg>
